<svg width="1400" height="250" viewBox="0 0 1400 250" fill="none" xmlns="http://www.w3.org/2000/svg">
<rect width="1400" height="250" fill="white"/>
<rect x="371.85" y="54.85" width="655.35" height="141.1" stroke="black" stroke-width="1.7"/>
<path d="M638.664 163.854H637.25V87.6938H640.949L686.21 158.087V87.6938H687.624V163.854H679.682L638.664 100.75V163.854Z" fill="black"/>
<path d="M603.156 88.7818V87.6938H622.523V88.7818H617.191V162.766H622.523V163.854H603.156V162.766H608.161V88.7818H603.156Z" fill="black"/>
<path d="M590.226 87.6938C591.604 89.072 592.293 90.849 592.293 93.0251C592.293 94.8384 591.894 96.688 591.096 98.5738L563.244 163.854L562.047 164.398L534.629 87.6938H543.877L566.616 152.103L589.791 98.5738C590.589 96.7605 590.988 94.8747 590.988 92.9163C590.988 90.9579 590.444 89.4347 589.356 88.3467L590.226 87.6938Z" fill="black"/>
<path d="M478.029 163.854H476.723L509.254 87.6939L510.451 87.1499L537.869 163.854H528.62L520.134 139.918H488.365L478.029 163.854ZM505.881 99.4443L488.8 138.83H519.808L505.881 99.4443Z" fill="black"/>
<path d="M426.454 87.8028C429.645 87.6577 432.764 87.5852 435.811 87.5852C438.93 87.5852 442.194 87.9116 445.603 88.5644C449.084 89.2172 452.493 90.4503 455.83 92.2636C459.239 94.0044 462.104 96.2892 464.425 99.118C466.819 101.874 468.741 105.537 470.192 110.107C471.642 114.676 472.368 120.225 472.368 126.753C472.368 133.281 471.28 139.156 469.104 144.379C467 149.529 464.099 153.482 460.4 156.238C453.219 161.605 444.551 164.289 434.396 164.289C430.842 164.289 427.107 164.144 423.19 163.854H417.75V87.8028H426.454ZM426.78 162.984C428.304 163.129 430.226 163.201 432.547 163.201C434.868 163.201 436.609 163.165 437.769 163.092C438.93 163.02 440.525 162.73 442.556 162.222C444.587 161.642 446.473 160.88 448.214 159.937C449.955 158.994 451.768 157.616 453.654 155.803C455.612 153.917 457.281 151.705 458.659 149.166C461.778 143.218 463.337 135.457 463.337 125.883C463.337 119.065 462.503 113.189 460.835 108.257C459.167 103.252 457.244 99.5532 455.068 97.1596C452.965 94.766 450.39 92.8801 447.344 91.502C444.297 90.0513 441.867 89.2172 440.054 88.9996C438.241 88.782 436.137 88.6732 433.744 88.6732C431.35 88.6732 429.029 88.782 426.78 88.9996V162.984Z" fill="black"/>
<path d="M932.938 88.4556C941.352 87.8753 948.751 87.5852 955.134 87.5852C973.122 87.5852 982.116 93.9319 982.116 106.625C982.116 112.5 980.593 117.65 977.546 122.075C975.951 124.468 973.485 126.391 970.148 127.841C966.812 129.219 962.786 129.908 958.071 129.908H941.969V163.745H932.938V88.4556ZM955.242 88.6732C951.036 88.6732 946.611 88.9271 941.969 89.4348V128.82H958.071C968.298 128.385 973.412 121.059 973.412 106.843C973.412 101.04 971.889 96.5793 968.842 93.4604C965.796 90.2689 961.263 88.6732 955.242 88.6732Z" fill="black"/>
<path d="M853.519 127.515C853.519 114.314 856.71 104.304 863.093 97.4859C869.548 90.5952 877.817 87.1499 887.899 87.1499C897.981 87.1499 905.996 90.1238 911.944 96.0715C917.964 102.019 920.975 111.521 920.975 124.577C920.975 137.633 917.783 147.498 911.4 154.171C905.017 160.844 896.495 164.18 885.832 164.18C876.62 164.18 869.077 161.533 863.202 156.238C860.155 153.482 857.762 149.674 856.021 144.814C854.353 139.882 853.519 134.115 853.519 127.515ZM887.573 88.2379C880.247 88.2379 874.227 91.5019 869.512 98.0299C864.87 104.558 862.549 114.132 862.549 126.753C862.549 139.374 864.761 148.586 869.186 154.388C873.61 160.191 879.485 163.092 886.811 163.092C894.21 163.092 900.23 159.828 904.872 153.3C909.587 146.7 911.944 137.162 911.944 124.686C911.944 112.138 909.696 102.926 905.199 97.0507C900.774 91.1755 894.899 88.2379 887.573 88.2379Z" fill="black"/>
<path d="M799.33 163.745H790.3V87.5852H799.33V122.619H834.69V87.5852H843.721V163.745H834.69V123.707H799.33V163.745Z" fill="black"/>
<path d="M776.629 92.1549C770.029 89.6162 763.791 88.3469 757.916 88.3469C752.113 88.3469 747.58 89.5799 744.316 92.0461C741.052 94.5122 739.42 97.9213 739.42 102.273C739.42 107.568 742.176 111.666 747.688 114.568C750.155 115.801 752.838 116.961 755.74 118.049C758.714 119.065 761.687 120.225 764.661 121.531C767.635 122.836 770.355 124.323 772.821 125.992C775.287 127.66 777.282 129.981 778.805 132.955C780.328 135.856 781.09 139.592 781.09 144.161C781.09 148.658 779.821 152.503 777.282 155.694C774.743 158.886 771.661 161.062 768.034 162.222C764.48 163.31 760.309 163.854 755.522 163.854C746.6 163.854 738.984 161.642 732.674 157.217L733.218 156.347C735.612 158.233 738.694 159.792 742.466 161.025C746.31 162.186 750.227 162.766 754.216 162.766C760.092 162.766 765.096 161.424 769.231 158.74C773.438 155.984 775.541 151.959 775.541 146.664C775.541 140.861 772.785 136.328 767.272 133.064C764.806 131.613 762.086 130.271 759.112 129.038C756.211 127.805 753.274 126.536 750.3 125.23C747.326 123.852 744.606 122.329 742.14 120.66C736.627 117.034 733.871 111.884 733.871 105.211C733.871 99.9159 735.648 95.6365 739.202 92.3725C742.756 89.0359 748.087 87.3677 755.196 87.3677C762.376 87.3677 769.666 88.6007 777.064 91.0669L776.629 92.1549Z" fill="black"/>
</svg>
